<svg version="1.1" xmlns="http://www.w3.org/2000/svg" width="32" height="32" viewBox="0 0 32 32">
<path d="M27.296 4.704c2.941 2.808 4.769 6.76 4.769 11.138 0 0.055-0 0.111-0.001 0.166l0-0.008c0.001 0.047 0.001 0.102 0.001 0.158 0 4.378-1.828 8.33-4.763 11.133l-0.006 0.006c-2.813 2.941-6.769 4.769-11.152 4.769-0.051 0-0.101-0-0.152-0.001l0.008 0c-0.047 0.001-0.102 0.001-0.158 0.001-4.378 0-8.33-1.828-11.133-4.763l-0.006-0.006c-2.941-2.813-4.769-6.769-4.769-11.152 0-0.051 0-0.101 0.001-0.152l-0 0.008c-0-0.043-0.001-0.093-0.001-0.144 0-4.383 1.828-8.338 4.763-11.146l0.006-0.005c2.803-2.903 6.73-4.706 11.078-4.706 0.077 0 0.153 0.001 0.23 0.002l-0.012-0c0.065-0.001 0.142-0.002 0.218-0.002 4.348 0 8.274 1.803 11.073 4.701l0.004 0.005zM16 18.752l5.376 5.376 2.752-2.752-5.344-5.376 5.44-5.44-2.752-2.752-5.472 5.44-5.408-5.44-2.72 2.752 5.408 5.44-5.408 5.44 2.72 2.752z"></path>
</svg>
