<svg version="1.1" xmlns="http://www.w3.org/2000/svg" width="32" height="32" viewBox="0 0 32 32">
<path d="M16.032 0c-8.836 0.018-15.996 7.167-16.032 15.997v0.003c0 8.837 7.163 16 16 16s16-7.163 16-16v0 0c-0.036-8.811-7.16-15.946-15.963-16l-0.005-0zM24.928 12.864l-10.304 10.368c-0.212 0.202-0.499 0.326-0.816 0.326s-0.604-0.124-0.816-0.327l0 0-5.952-6.048c-0.202-0.212-0.326-0.499-0.326-0.816s0.124-0.604 0.327-0.816l1.632-1.632c0.209-0.209 0.497-0.339 0.816-0.339s0.607 0.13 0.816 0.339l0 0 3.488 3.552 7.84-7.872c0.201-0.213 0.485-0.348 0.799-0.352h0.001c0.316 0 0.601 0.136 0.799 0.351l0.001 0.001 1.632 1.632c0.195 0.215 0.314 0.502 0.314 0.816s-0.119 0.601-0.315 0.817l0.001-0.001z"></path>
</svg>
