<svg version="1.1" xmlns="http://www.w3.org/2000/svg" width="30" height="32" viewBox="0 0 30 32">
<path d="M0 16q0-3.040 1.184-5.824t3.2-4.768 4.768-3.2 5.856-1.184q3.040 0 5.792 1.184t4.8 3.2 3.2 4.768 1.184 5.824q0 3.040-1.184 5.824t-3.2 4.8-4.8 3.2-5.792 1.184q-3.072 0-5.856-1.184t-4.768-3.2-3.2-4.8-1.184-5.824zM12.384 9.728l0.864 7.808q0.064 0.672 0.544 1.12t1.152 0.544q0.768 0.096 1.376-0.384t0.672-1.28l0.864-7.808v-0.544q-0.128-1.12-0.992-1.856t-2.016-0.608-1.856 0.992-0.608 2.016zM12.768 22.88q0 0.96 0.704 1.664t1.632 0.672 1.664-0.672 0.704-1.664-0.704-1.664q-0.64-0.64-1.664-0.64t-1.632 0.64q-0.704 0.704-0.704 1.664z"></path>
</svg>
